<?xml version="1.0" encoding="utf-8"?>
<!-- Generator: Adobe Illustrator 26.0.1, SVG Export Plug-In . SVG Version: 6.00 Build 0)  -->
<svg version="1.1" id="Layer_1" xmlns="http://www.w3.org/2000/svg" xmlns:xlink="http://www.w3.org/1999/xlink" x="0px" y="0px"
	 viewBox="0 0 800 800" style="enable-background:new 0 0 800 800;" xml:space="preserve">
<style type="text/css">
	.st0{fill:#0A3A4E;}
	.st1{fill:#FFFFFF;}
</style>
<g>
	<path class="st0" d="M503.09,383.58c-6.91-59.69-64.59-101.47-123.48-88.78c-41.52,8.95-69.11,34.66-79.72,75.76
		c-10.58,40.98,1.25,78.16,32.64,106.66l5.21,30.27v-90.02h52.53v82.38c2.36,0.16,4.45,0.3,7.09,0.48v-82.79h5.92v82.64
		c1.04,0,1.72,0.01,2.4,0c4.46-0.1,4.46-0.1,4.46-4.51c0-24.94,0-49.89,0-74.83v-3.33h52.76v89.98c2.32-10.52,4.19-21.05,6.18-31.56
		c0.23-1.23,0.96-2.57,1.86-3.44C496.12,448.06,507.11,418.39,503.09,383.58z M469.21,412.09H331.25c0-5.38-0.16-10.67,0.07-15.95
		c0.11-2.45,2.41-4.27,4.88-4.56c0.85-0.1,1.71-0.07,2.57-0.07c40.87,0,81.74,0,122.62,0c5.98,0,7.82,1.84,7.82,7.81
		C469.21,403.51,469.21,407.7,469.21,412.09z"/>
	<path class="st1" d="M331.25,412.09c0-5.38-0.16-10.67,0.07-15.95c0.11-2.45,2.41-4.26,4.88-4.56c0.85-0.1,1.71-0.07,2.57-0.07
		c40.87,0,81.74,0,122.62,0c5.99,0,7.82,1.83,7.82,7.81c0,4.19,0,8.37,0,12.76C423.15,412.09,377.29,412.09,331.25,412.09z"/>
	<path class="st1" d="M405.13,373.06c2.29-5.17,4.34-10.15,6.67-14.99c2.41-5,4.76-10.08,7.76-14.72c3.64-5.65,9.14-8.58,16.03-8.68
		c5.27-0.08,9.37,2.08,12.08,6.48c4.55,7.41,4.77,15.18,0.42,22.68c-6.62,11.43-17.15,17.41-29.8,19.84
		c-3.47,0.66-7.14,0.21-10.72,0.36c-0.87,0.04-1.83,0.25-2.56,0.69c-4.64,2.8-10.3,2.23-14.1-1.74c-1.01-1.05-1.76-1.16-3.06-0.76
		c-8.08,2.49-16.27,3.28-24.55,1.05c-4.4-1.18-8.23-3.35-11.17-6.92c-4.26-5.16-4.45-11.63-0.53-17.07
		c5.49-7.61,16.13-9.65,24.27-4.24c3.15,2.09,5.71,5.11,8.4,7.84c1.5,1.52,2.67,3.35,4.06,4.97c1.94,2.27,3.79,4.09,7.42,2.78
		C398.84,369.52,401.97,370.91,405.13,373.06z M405.38,380.06c6.89,0.18,12.85-0.6,18.51-3.03c9.72-4.17,13.84-11.84,12.05-22.28
		c-0.97-5.65-3.86-6.87-8.6-3.55c-4.44,3.11-7.67,7.29-10.16,12.04C414.09,369.14,411.01,375.05,405.38,380.06z M385.59,378.9
		c-4.61-1.02-7.64-3.59-10.46-6.48c-2.27-2.32-4.39-4.83-6.89-6.89c-2.21-1.82-4.68-3.54-7.32-4.59c-4.58-1.82-8.29,0.87-8.41,5.79
		c-0.13,5.02,2.25,8.87,6.56,11.08c2.98,1.53,6.38,2.52,9.7,3.02C374.29,381.66,379.81,381.29,385.59,378.9z"/>
</g>
</svg>
